<svg width="89" height="89" viewBox="0 0 89 89" fill="none" xmlns="http://www.w3.org/2000/svg">
<path d="M5.82001 22.37L22.38 5.81C19.44 7.49 16.71 9.5 14.24 11.78L11.79 14.23C9.51001 16.7 7.50001 19.43 5.82001 22.37Z" fill="#191A1C"/>
<path d="M0.880005 35.53L35.54 0.87C34.58 1.06 33.64 1.29 32.7 1.54L1.54999 32.69C1.29999 33.63 1.07 34.57 0.880005 35.53Z" fill="#191A1C"/>
<path d="M0 44.34C0 44.43 0 44.53 0 44.62L44.63 0C44.54 0 44.44 0 44.35 0C43.7 0 43.06 0.02 42.43 0.04L0.0499878 42.42C0.0199878 43.06 0 43.7 0 44.34Z" fill="#191A1C"/>
<path d="M0.690002 52.16L52.16 0.69C51.54 0.58 50.91 0.48 50.29 0.4L0.399994 50.29C0.479994 50.91 0.580002 51.54 0.690002 52.16Z" fill="#191A1C"/>
<path d="M2.37 58.69L58.69 2.37C58.15 2.18 57.6 2.01 57.05 1.85L1.85001 57.05C2.02001 57.6 2.19 58.15 2.37 58.69Z" fill="#191A1C"/>
<path d="M4.82001 64.46L64.47 4.81C63.99 4.57 63.5 4.33 63.01 4.1L4.10999 63C4.33999 63.49 4.57001 63.98 4.82001 64.46Z" fill="#191A1C"/>
<path d="M7.89999 69.6L69.61 7.89C69.18 7.59 68.75 7.3 68.31 7.02L7.03 68.3C7.31 68.74 7.59999 69.17 7.89999 69.6Z" fill="#191A1C"/>
<path d="M11.54 74.18L74.18 11.54C73.8 11.2 73.42 10.86 73.03 10.53L10.53 73.03C10.86 73.41 11.2 73.8 11.54 74.18Z" fill="#191A1C"/>
<path d="M15.73 78.21L78.22 15.72C77.89 15.33 77.55 14.94 77.21 14.56L14.57 77.2C14.95 77.54 15.33 77.88 15.73 78.21Z" fill="#191A1C"/>
<path d="M20.45 81.7L81.71 20.44C81.43 20 81.14 19.57 80.84 19.14L19.15 80.84C19.58 81.13 20.01 81.42 20.45 81.7Z" fill="#191A1C"/>
<path d="M25.76 84.61L84.61 25.76C84.38 25.27 84.15 24.78 83.9 24.3L24.29 83.91C24.78 84.15 25.27 84.38 25.76 84.61Z" fill="#191A1C"/>
<path d="M31.73 86.86L86.87 31.72C86.71 31.17 86.53 30.62 86.35 30.08L30.09 86.34C30.63 86.53 31.18 86.7 31.73 86.86Z" fill="#191A1C"/>
<path d="M38.51 88.3L88.31 38.5C88.23 37.87 88.13 37.24 88.02 36.62L36.63 88.01C37.25 88.12 37.88 88.22 38.51 88.3Z" fill="#191A1C"/>
<path d="M44.35 88.69C45.04 88.69 45.72 88.67 46.39 88.64L88.64 46.39C88.67 45.71 88.69 45.03 88.69 44.35C88.69 44.29 88.69 44.24 88.69 44.18L44.18 88.69C44.23 88.68 44.29 88.69 44.35 88.69Z" fill="#191A1C"/>
<path d="M56.15 87.09L87.1 56.14C87.36 55.2 87.59 54.25 87.79 53.29L53.3 87.78C54.26 87.58 55.21 87.35 56.15 87.09Z" fill="#191A1C"/>
<path d="M82.71 66.58L66.58 82.71C73.26 78.83 78.83 73.26 82.71 66.58Z" fill="#191A1C"/>
</svg>
