<svg width="525" height="425" viewBox="0 0 525 425" fill="none" xmlns="http://www.w3.org/2000/svg">
<path d="M218.509 392.876C218.509 393.817 217.746 394.581 216.805 394.581C215.864 394.581 215.1 393.817 215.1 392.876C215.1 391.935 215.864 391.172 216.805 391.172C217.746 391.183 218.509 391.935 218.509 392.876Z" fill="white"/>
<path d="M355.954 14.2397C356.896 14.2397 357.659 13.4764 357.659 12.5349C357.659 11.5934 356.896 10.8301 355.954 10.8301C355.013 10.8301 354.249 11.5934 354.249 12.5349C354.249 13.4764 355.013 14.2397 355.954 14.2397Z" fill="white"/>
<path d="M444.691 112.198C447.754 112.198 450.237 109.715 450.237 106.652C450.237 103.589 447.754 101.106 444.691 101.106C441.628 101.106 439.145 103.589 439.145 106.652C439.145 109.715 441.628 112.198 444.691 112.198Z" fill="url(#paint0_linear_16_3)"/>
<path d="M471.48 136.596C478.792 136.596 484.72 130.668 484.72 123.356C484.72 116.044 478.792 110.117 471.48 110.117C464.168 110.117 458.24 116.044 458.24 123.356C458.24 130.668 464.168 136.596 471.48 136.596Z" fill="url(#paint1_linear_16_3)"/>
<path d="M97.8025 266.845C97.8025 270.232 95.0572 272.978 91.6698 272.978C88.2824 272.978 85.537 270.232 85.537 266.845C85.537 263.458 88.2824 260.712 91.6698 260.712C95.0572 260.712 97.8025 263.458 97.8025 266.845Z" fill="url(#paint2_linear_16_3)"/>
<path d="M133.038 238.572C135.074 238.572 136.725 236.922 136.725 234.886C136.725 232.85 135.074 231.2 133.038 231.2C131.002 231.2 129.352 232.85 129.352 234.886C129.352 236.922 131.002 238.572 133.038 238.572Z" fill="white"/>
<path d="M135.462 312.287C135.462 314.324 133.813 315.973 131.776 315.973C129.739 315.973 128.09 314.324 128.09 312.287C128.09 310.25 129.739 308.601 131.776 308.601C133.813 308.601 135.462 310.25 135.462 312.287Z" fill="white"/>
<path d="M116.157 133.507C116.157 134.448 115.393 135.212 114.452 135.212C113.511 135.212 112.747 134.448 112.747 133.507C112.747 132.566 113.511 131.803 114.452 131.803C115.393 131.814 116.157 132.566 116.157 133.507Z" fill="white"/>
<path d="M443.03 182.78C443.972 182.78 444.735 182.016 444.735 181.075C444.735 180.133 443.972 179.37 443.03 179.37C442.089 179.37 441.325 180.133 441.325 181.075C441.325 182.016 442.089 182.78 443.03 182.78Z" fill="white"/>
<path d="M459.934 334.516C459.934 335.457 459.17 336.22 458.229 336.22C457.288 336.22 456.524 335.457 456.524 334.516C456.524 333.575 457.288 332.811 458.229 332.811C459.17 332.822 459.934 333.575 459.934 334.516Z" fill="white"/>
<path d="M97.8025 110.338C99.8384 110.338 101.489 108.688 101.489 106.652C101.489 104.616 99.8384 102.965 97.8025 102.965C95.7667 102.965 94.1162 104.616 94.1162 106.652C94.1162 108.688 95.7667 110.338 97.8025 110.338Z" fill="white"/>
<path d="M198.174 351.774C198.174 353.811 196.524 355.46 194.487 355.46C192.45 355.46 190.801 353.811 190.801 351.774C190.801 349.737 192.45 348.087 194.487 348.087C196.524 348.087 198.174 349.737 198.174 351.774Z" fill="white"/>
<path d="M436.543 349.549C436.543 351.585 434.894 353.235 432.857 353.235C430.82 353.235 429.17 351.585 429.17 349.549C429.17 347.512 430.82 345.862 432.857 345.862C434.894 345.862 436.543 347.512 436.543 349.549Z" fill="white"/>
<path d="M499.653 240.698C499.653 242.735 498.004 244.384 495.967 244.384C493.93 244.384 492.281 242.735 492.281 240.698C492.281 238.661 493.93 237.011 495.967 237.011C498.004 237 499.653 238.661 499.653 240.698Z" fill="white"/>
<path d="M56.5669 190.152C58.6028 190.152 60.2532 188.502 60.2532 186.466C60.2532 184.43 58.6028 182.78 56.5669 182.78C54.5311 182.78 52.8806 184.43 52.8806 186.466C52.8806 188.502 54.5311 190.152 56.5669 190.152Z" fill="white"/>
<path d="M160.824 355.537L171.008 359.678L175.591 343.848L160.824 355.537Z" fill="#FF7E3D"/>
<path d="M133.038 342.32L141.319 363.464L173.101 335.634L133.038 342.32Z" fill="url(#paint3_linear_16_3)"/>
<path d="M491.782 168.245L487.343 190.518L451.167 168.699L491.782 168.245Z" fill="#FF7E3D"/>
<path d="M126.462 83.5486L112.99 92.9913L129.197 101.371L126.462 83.5486Z" fill="#FF7E3D"/>
<path d="M456.613 205.639L441.303 199.628L443.273 217.761L456.613 205.639Z" fill="url(#paint4_linear_16_3)"/>
<path d="M256.796 47.1161C241.907 38.8358 223.464 33.3894 206.549 38.238C193.42 42.0018 183.513 51.8098 176.029 62.8576C167.605 75.2892 161.672 89.2262 155.384 102.809C151.531 111.123 147.336 119.115 141.712 126.399C135.668 134.237 128.473 141.189 120.447 146.967C112.145 152.934 103.001 157.594 93.3035 160.816C82.2446 164.491 70.754 166.528 59.4073 169.096C40.7544 173.336 20.9724 179.922 8.76226 195.62C3.36012 202.56 0.149828 210.974 0.00591869 219.796C-0.149061 228.852 2.75129 237.774 7.32318 245.523C17.6957 263.135 35.7287 273.209 54.5476 279.663C74.6949 286.57 95.9603 289.858 115.687 298.05C125.539 302.146 134.971 307.515 142.786 314.854C150.535 322.138 156.524 331.005 161.849 340.149C171.889 357.418 179.97 376.248 194.439 390.451C201.114 397.004 209.095 402.307 218.106 405.008C227.161 407.709 236.837 407.709 246.036 405.749C289.264 396.528 308.503 352.968 325.928 317.201C335.669 297.209 346.473 277.748 362.89 262.416C378.742 247.615 397.661 236.324 412.439 220.339C425.568 206.147 435.443 187.97 433.129 168.078C430.926 149.17 419.159 132.443 404.723 120.61C388.096 106.982 367.528 99.0121 347.558 91.6838C336.842 87.7539 325.994 84.0898 315.588 79.374C305.315 74.7135 295.441 69.2561 285.688 63.6104C281.028 60.9093 276.401 58.164 271.751 55.4407C266.814 52.5515 261.689 50.0497 256.696 47.2711C256.309 47.0497 255.954 47.6475 256.342 47.8689C261.323 50.6364 266.061 53.8577 270.976 56.747C275.626 59.4702 280.253 62.2155 284.913 64.9166C294.445 70.4405 304.098 75.7763 314.116 80.3592C333.986 89.4587 355.219 95.1597 375.034 104.414C393.51 113.038 410.889 124.617 421.981 142.13C427.074 150.166 430.705 159.244 431.701 168.742C432.742 178.649 430.749 188.557 426.52 197.535C417.664 216.343 401.159 229.759 385.096 242.235C376.573 248.855 367.96 255.419 360.178 262.914C352.65 270.154 346.174 278.334 340.551 287.124C329.082 305.046 321.057 324.839 311.216 343.647C301.607 362.001 289.851 380.377 272.559 392.399C256.585 403.502 235.541 409.458 216.601 402.949C197.959 396.539 185.638 379.569 176.251 363.141C166.288 345.695 158.007 326.555 142.808 312.85C127.797 299.323 108.06 292.924 88.9087 287.81C68.6728 282.408 47.5403 277.98 29.6955 266.445C13.9541 256.272 0.869371 238.671 1.48929 219.199C2.10921 199.472 18.05 185.601 34.9206 178.162C55.1675 169.229 77.8831 168.443 98.4732 160.517C115.72 153.875 131.008 142.428 142.377 127.883C152.472 114.975 158.162 99.5988 165.258 84.9865C171.38 72.3778 178.321 59.4481 188.826 49.9058C199.675 40.0424 213.601 36.3229 228.036 38.3376C237.988 39.7214 247.453 43.2638 256.253 48.0571C256.851 48.356 257.382 47.4482 256.796 47.1161Z" fill="url(#paint5_linear_16_3)"/>
<path d="M322.08 12.2249C305.055 2.76009 283.955 -3.46121 264.616 2.0959C249.616 6.40212 238.292 17.616 229.746 30.2357C220.104 44.4717 213.318 60.4235 206.111 75.9657C201.694 85.497 196.89 94.6407 190.458 102.987C183.54 111.965 175.292 119.947 166.082 126.555C156.573 133.397 146.09 138.732 134.987 142.419C122.334 146.625 109.172 148.95 96.1866 151.906C74.8548 156.754 52.2167 164.282 38.2464 182.237C32.0805 190.163 28.4274 199.772 28.2503 209.846C28.0732 220.196 31.3941 230.38 36.6081 239.236C48.464 259.373 69.0873 270.897 90.6073 278.269C113.677 286.173 138.02 289.937 160.603 299.313C171.905 304.007 182.72 310.162 191.676 318.575C200.554 326.911 207.417 337.073 213.517 347.556C224.997 367.316 234.251 388.869 250.812 405.12C258.439 412.614 267.549 418.669 277.856 421.758C288.206 424.846 299.254 424.846 309.77 422.61C359.22 412.061 381.227 362.213 401.164 321.287C412.322 298.394 424.688 276.099 443.506 258.542C461.661 241.605 483.314 228.676 500.229 210.377C515.24 194.149 526.531 173.37 523.874 150.622C521.35 129.013 507.889 109.884 491.384 96.3566C472.366 80.7701 448.831 71.6484 425.994 63.2685C413.717 58.763 401.286 54.5675 389.363 49.1653C377.607 43.8296 366.293 37.5862 355.135 31.1102C349.799 28.0217 344.497 24.8779 339.183 21.7562C333.537 18.4462 327.693 15.5348 321.98 12.3577C321.593 12.1363 321.239 12.7341 321.626 12.9555C327.327 16.1215 332.785 19.7636 338.419 23.0624C343.733 26.1841 349.046 29.3169 354.371 32.4165C365.275 38.7375 376.323 44.8481 387.791 50.0952C410.54 60.512 434.85 67.0323 457.532 77.6262C478.698 87.5117 498.602 100.773 511.321 120.832C517.155 130.042 521.317 140.459 522.457 151.352C523.653 162.721 521.361 174.068 516.502 184.374C506.351 205.916 487.454 221.281 469.067 235.572C459.303 243.155 449.451 250.661 440.54 259.24C431.927 267.52 424.521 276.885 418.09 286.937C404.961 307.461 395.773 330.121 384.504 351.652C373.489 372.685 360.028 393.729 340.213 407.5C321.903 420.219 297.77 427.049 276.062 419.577C254.697 412.227 240.561 392.788 229.801 373.947C218.399 353.988 208.923 332.08 191.532 316.394C174.363 300.918 151.78 293.601 129.872 287.756C106.703 281.568 82.4931 276.487 62.069 263.292C44.025 251.635 29.0252 231.443 29.7226 209.115C30.4311 186.499 48.7075 170.581 68.0468 162.046C91.2272 151.817 117.253 150.92 140.832 141.832C160.547 134.238 178.038 121.131 191.045 104.504C202.602 89.7257 209.111 72.1355 217.225 55.4199C224.244 40.9736 232.192 26.173 244.225 15.2359C256.679 3.92244 272.642 -0.339493 289.213 1.9852C300.615 3.57927 311.453 7.63088 321.527 13.1326C322.147 13.4537 322.678 12.5459 322.08 12.2249Z" fill="url(#paint6_linear_16_3)"/>
<path d="M402.204 262.55C415.245 248.458 431.739 238.34 445.975 225.587C458.384 214.473 469.786 200.348 472.576 183.466C475.255 167.171 468.923 151.142 458.705 138.622C447.325 124.674 431.484 115.618 415.167 108.578C397.334 100.884 378.504 95.6481 361.013 87.1464C343.589 78.6668 327.582 67.6854 310.412 58.7741C297.405 52.0214 281.431 47.8923 266.963 52.0657C255.826 55.276 247.192 63.2906 240.572 72.523C233.011 83.0616 227.686 95.0393 222.295 106.762C219.207 113.493 216.185 120.246 212.122 126.467C207.572 133.419 202.071 139.74 195.838 145.23C189.451 150.865 182.277 155.603 174.595 159.267C165.75 163.485 156.241 165.953 146.71 168.068C129.374 171.909 111.308 175.009 96.751 185.924C90.6293 190.518 85.3379 196.363 82.2494 203.436C79.1609 210.499 78.5409 218.325 80.1018 225.853C83.456 241.993 95.3009 254.989 109.282 263.004C140.876 281.125 182.831 278.015 209.975 304.472C223.148 317.313 230.288 334.604 239.476 350.202C247.634 364.061 258.14 377.843 273.494 384.076C289.158 390.441 307.003 387.12 321.427 379.128C337.024 370.493 348.449 356.235 357.415 341.135C359.674 337.327 361.799 333.453 363.836 329.523C365.939 325.483 367.555 321.254 369.537 317.158C369.725 316.759 369.138 316.405 368.939 316.804C366.98 320.866 364.611 324.752 362.53 328.748C360.437 332.767 358.268 336.752 355.943 340.648C351.371 348.32 346.246 355.681 340.179 362.246C328.478 374.91 312.704 384.43 295.224 385.781C286.822 386.434 278.343 385.006 270.782 381.22C263.398 377.522 257.177 371.932 251.908 365.633C240.804 352.36 234.162 336.22 225.129 321.597C220.635 314.324 215.498 307.372 209.133 301.627C202.735 295.848 195.24 291.42 187.381 287.955C171.23 280.826 153.794 277.616 136.946 272.601C120.164 267.609 103.105 260.469 91.847 246.476C81.6516 233.801 76.814 216.133 85.0501 201.178C93.0426 186.665 109.282 178.938 124.603 174.721C142.525 169.784 161.311 167.913 178.027 159.245C192.13 151.939 204.318 140.969 213.085 127.729C220.568 116.437 225.185 103.397 231.251 91.3308C236.609 80.6926 242.797 69.9105 251.919 62.0287C261.372 53.8591 273.317 50.7705 285.638 52.3203C304.025 54.6229 319.567 65.5932 335.187 74.7148C343.412 79.5192 351.703 84.235 360.282 88.3973C368.552 92.4157 377.076 95.6813 385.71 98.8141C417.835 110.515 457.023 124.031 469.111 159.787C471.779 167.669 472.565 176.105 471.004 184.296C469.41 192.643 465.613 200.392 460.731 207.3C450.303 222.089 435.425 232.561 421.433 243.676C414.381 249.277 407.518 255.122 401.463 261.797C401.009 262.306 401.75 263.048 402.204 262.55Z" fill="url(#paint7_linear_16_3)"/>
<defs>
<linearGradient id="paint0_linear_16_3" x1="0.224983" y1="212.266" x2="523.975" y2="212.266" gradientUnits="userSpaceOnUse">
<stop offset="0.0277" stop-color="#FFD24D"/>
<stop offset="0.7154" stop-color="#F6BE56"/>
<stop offset="1" stop-color="#F2B45A"/>
</linearGradient>
<linearGradient id="paint1_linear_16_3" x1="-0.10082" y1="212.175" x2="524.296" y2="212.175" gradientUnits="userSpaceOnUse">
<stop offset="0.0277" stop-color="#FFD24D"/>
<stop offset="0.7154" stop-color="#F6BE56"/>
<stop offset="1" stop-color="#F2B45A"/>
</linearGradient>
<linearGradient id="paint2_linear_16_3" x1="0.359603" y1="211.978" x2="524.239" y2="211.978" gradientUnits="userSpaceOnUse">
<stop offset="0.0277" stop-color="#FFD24D"/>
<stop offset="0.7154" stop-color="#F6BE56"/>
<stop offset="1" stop-color="#F2B45A"/>
</linearGradient>
<linearGradient id="paint3_linear_16_3" x1="-0.020281" y1="212.114" x2="524.263" y2="212.114" gradientUnits="userSpaceOnUse">
<stop offset="0.0277" stop-color="#FFD24D"/>
<stop offset="0.7154" stop-color="#FFBE56"/>
<stop offset="1" stop-color="#FFB45A"/>
</linearGradient>
<linearGradient id="paint4_linear_16_3" x1="-63.9217" y1="45.278" x2="177.567" y2="386.193" gradientUnits="userSpaceOnUse">
<stop offset="0.0277" stop-color="#FFD24D"/>
<stop offset="0.7154" stop-color="#F6BE56"/>
<stop offset="1" stop-color="#F2B45A"/>
</linearGradient>
<linearGradient id="paint5_linear_16_3" x1="29.7141" y1="296.743" x2="510.846" y2="111.64" gradientUnits="userSpaceOnUse">
<stop offset="0.0277" stop-color="#FFD24D"/>
<stop offset="0.0356" stop-color="#F7CC4C"/>
<stop offset="0.0797" stop-color="#CEAE4A"/>
<stop offset="0.1292" stop-color="#A89348"/>
<stop offset="0.1831" stop-color="#887B45"/>
<stop offset="0.2427" stop-color="#6C6744"/>
<stop offset="0.3099" stop-color="#565742"/>
<stop offset="0.3884" stop-color="#454B41"/>
<stop offset="0.4856" stop-color="#3A4241"/>
<stop offset="0.6218" stop-color="#333D40"/>
<stop offset="1" stop-color="#313C40"/>
</linearGradient>
<linearGradient id="paint6_linear_16_3" x1="0.00573277" y1="212.101" x2="524.271" y2="212.101" gradientUnits="userSpaceOnUse">
<stop stop-color="#5C5A44"/>
<stop offset="0.6103" stop-color="#3F4541"/>
<stop offset="1" stop-color="#313C40"/>
</linearGradient>
<linearGradient id="paint7_linear_16_3" x1="181.801" y1="100.073" x2="392.902" y2="311.174" gradientUnits="userSpaceOnUse">
<stop stop-color="#313C40"/>
<stop offset="0.251" stop-color="#333E40"/>
<stop offset="0.397" stop-color="#3C4441"/>
<stop offset="0.5161" stop-color="#4A4E42"/>
<stop offset="0.6208" stop-color="#5E5D43"/>
<stop offset="0.716" stop-color="#786F44"/>
<stop offset="0.8042" stop-color="#988746"/>
<stop offset="0.8873" stop-color="#BDA249"/>
<stop offset="0.964" stop-color="#E8C14C"/>
<stop offset="1" stop-color="#FFD24D"/>
</linearGradient>
</defs>
</svg>
