<svg width="194" height="50" viewBox="0 0 194 50" fill="none" xmlns="http://www.w3.org/2000/svg">
<path d="M176.87 19.99L160.43 3.63L143.98 19.99L127.54 3.63L111.1 19.99L96.6 5.56L82.09 19.99L65.65 3.63L49.2 19.99L32.76 3.63L16.32 19.99L0 3.75L1.82 1.93L16.32 16.36L32.76 0L49.2 16.36L65.65 0L82.09 16.36L96.6 1.92L111.1 16.36L127.54 0L143.98 16.36L160.43 0L176.87 16.36L191.38 1.93L193.19 3.75L176.87 19.99Z" fill="#0B315E"/>
<path d="M176.87 49.24L160.43 32.88L143.98 49.24L127.54 32.88L111.1 49.24L98.06 36.26L98.05 32.62L111.1 45.61L127.54 29.25L143.98 45.61L160.43 29.25L176.87 45.61L191.38 31.18L193.19 33.01L176.87 49.24Z" fill="#FF9D00"/>
</svg>
